# xmcd
#
# Track frame offsets: 
#        187
#        41097
#        68767
#        96892
#        131997
#        160420
#
# Disc length: 2402 seconds
#
# Revision: 1
# Processed by: cddbd v1.5.2PL0 Copyright (c) Steve Scherf et al.
# Submitted via: ExactAudioCopy v0.99pb5
#
DISCID=53096006
DTITLE=The Miles Davis Quintet - Steamin' (Japanese Reissue)
DYEAR=1985
DGENRE=Jazz
TTITLE0=Surrey With The Fringe On Top
TTITLE1=Salt Peanuts
TTITLE2=Something I Dreamed Last Night
TTITLE3=Diane
TTITLE4=Well You Needn't
TTITLE5=When I Fall In Love
EXTD=YEAR: 1956
EXTT0=
EXTT1=
EXTT2=
EXTT3=
EXTT4=
EXTT5=
PLAYORDER=
